<?xml version="1.0" encoding="UTF-8" standalone="no"?>
<!-- Created with Inkscape (http://www.inkscape.org/) -->

<svg
   xmlns:dc="http://purl.org/dc/elements/1.1/"
   xmlns:cc="http://creativecommons.org/ns#"
   xmlns:rdf="http://www.w3.org/1999/02/22-rdf-syntax-ns#"
   xmlns:svg="http://www.w3.org/2000/svg"
   xmlns="http://www.w3.org/2000/svg"
   xmlns:sodipodi="http://sodipodi.sourceforge.net/DTD/sodipodi-0.dtd"
   xmlns:inkscape="http://www.inkscape.org/namespaces/inkscape"
   width="10.525192mm"
   height="9.968152mm"
   viewBox="0 0 10.525193 9.9681509"
   version="1.1"
   id="svg5889"
   inkscape:version="0.92.3 (2405546, 2018-03-11)"
   sodipodi:docname="orange-fruit.svg">
  <defs
     id="defs5883" />
  <sodipodi:namedview
     id="base"
     pagecolor="#ffffff"
     bordercolor="#666666"
     borderopacity="1.0"
     inkscape:pageopacity="0.0"
     inkscape:pageshadow="2"
     inkscape:zoom="3.06"
     inkscape:cx="94.715813"
     inkscape:cy="16.812517"
     inkscape:document-units="mm"
     inkscape:current-layer="layer1"
     showgrid="false"
     fit-margin-top="1"
     fit-margin-bottom="1"
     fit-margin-right="1"
     fit-margin-left="1"
     inkscape:window-width="1853"
     inkscape:window-height="1025"
     inkscape:window-x="67"
     inkscape:window-y="27"
     inkscape:window-maximized="1" />
  <metadata
     id="metadata5886">
    <rdf:RDF>
      <cc:Work
         rdf:about="">
        <dc:format>image/svg+xml</dc:format>
        <dc:type
           rdf:resource="http://purl.org/dc/dcmitype/StillImage" />
        <dc:title></dc:title>
      </cc:Work>
    </rdf:RDF>
  </metadata>
  <g
     inkscape:label="Capa 1"
     inkscape:groupmode="layer"
     id="layer1"
     transform="translate(-80.773109,-115.94281)">
    <g
       transform="matrix(0.35277777,0,0,-0.35277777,-59.509539,230.1949)"
       id="g8887">
      <g
         transform="translate(417.5703,314.0937)"
         id="g98">
        <path
           inkscape:connector-curvature="0"
           id="path100"
           style="fill:#db7630;fill-opacity:1;fill-rule:nonzero;stroke:none"
           d="m 0,0 c 1.34,-1.706 2.141,-3.856 2.141,-6.193 0,-5.547 -4.498,-10.045 -10.045,-10.045 -2.338,0 -4.487,0.801 -6.194,2.14 1.838,-2.343 4.696,-3.851 7.905,-3.851 5.547,0 10.045,4.497 10.045,10.045 C 3.852,-4.694 2.344,-1.839 0,0" />
      </g>
      <g
         transform="translate(419.7109,307.9004)"
         id="g102">
        <path
           inkscape:connector-curvature="0"
           id="path104"
           style="fill:#f7961d;fill-opacity:1;fill-rule:nonzero;stroke:none"
           d="m 0,0 c 0,2.337 -0.801,4.487 -2.141,6.193 -1.707,1.34 -3.855,2.14 -6.193,2.14 -5.549,0 -10.045,-4.497 -10.045,-10.044 0,-2.337 0.801,-4.487 2.141,-6.194 1.707,-1.339 3.855,-2.14 6.193,-2.14 C -4.498,-10.045 0,-5.547 0,0" />
      </g>
      <g
         transform="translate(407.3496,308.8608)"
         id="g106">
        <path
           inkscape:connector-curvature="0"
           id="path108"
           style="fill:#fbb44e;fill-opacity:1;fill-rule:nonzero;stroke:none"
           d="m 0,0 c -1.314,-1.518 -3.143,-2.088 -4.08,-1.274 -0.94,0.813 -0.633,2.703 0.685,4.22 1.317,1.518 3.145,2.088 4.082,1.275 C 1.623,3.407 1.316,1.517 0,0" />
      </g>
      <g
         transform="translate(413.877,314.6973)"
         id="g110">
        <path
           inkscape:connector-curvature="0"
           id="path112"
           style="fill:#db7630;fill-opacity:1;fill-rule:nonzero;stroke:none"
           d="M 0,0 C 0,-0.513 -1.119,-0.929 -2.5,-0.929 -3.883,-0.929 -5,-0.513 -5,0 -5,0.513 -3.883,0.929 -2.5,0.929 -1.119,0.929 0,0.513 0,0" />
      </g>
      <g
         transform="translate(412.4023,315.5039)"
         id="g114">
        <path
           inkscape:connector-curvature="0"
           id="path116"
           style="fill:#4daf4e;fill-opacity:1;fill-rule:nonzero;stroke:none"
           d="m 0,0 c 0,-0.693 -0.561,-1.254 -1.254,-1.254 -0.693,0 -1.256,0.561 -1.256,1.254 v 2.542 c 0,0.693 0.563,1.255 1.256,1.255 C -0.561,3.797 0,3.235 0,2.542 Z" />
      </g>
      <g
         transform="translate(415.8437,315.8779)"
         id="g118">
        <path
           inkscape:connector-curvature="0"
           id="path120"
           style="fill:#4daf4e;fill-opacity:1;fill-rule:nonzero;stroke:none"
           d="M 0,0 C -3.68,-2.549 -5.617,-1.276 -5.617,-1.276 L 3.168,4.81 C 3.168,4.81 3.826,2.653 0,0" />
      </g>
      <g
         transform="translate(419.0117,320.6875)"
         id="g122">
        <path
           inkscape:connector-curvature="0"
           id="path124"
           style="fill:#89c149;fill-opacity:1;fill-rule:nonzero;stroke:none"
           d="m 0,0 -8.785,-6.085 c 0,0 -0.334,2.382 3.168,4.807 C -1.758,1.396 0,0 0,0" />
      </g>
    </g>
  </g>
</svg>
